<svg width="190" height="2286" viewBox="0 0 190 2286" fill="none" xmlns="http://www.w3.org/2000/svg">
<path d="M115.993 2186.7C114.847 2186.68 111.557 2186.63 110.412 2186.7C108.84 2183.46 106.361 2180.97 103.093 2179.44C101.095 2178.51 98.6475 2178.23 96.998 2176.66C96.3605 2176.05 95.8912 2175.24 95.4853 2174.39C94.0108 2171.28 93.2409 2168.01 92.1113 2164.78C91.5514 2163.17 90.8455 2161.21 89.3519 2160.22C86.3012 2158.2 83.5191 2161.5 82.8748 2164.27C81.6497 2169.52 83.1569 2175.16 85.5923 2179.86C80.3187 2179.34 74.8807 2179.27 69.7069 2180.56C67.2525 2181.18 64.6434 2182.58 64.4426 2185.4C64.301 2187.39 65.1977 2189.5 66.6624 2190.84C67.1422 2191.27 68.7134 2192.3 68.7054 2192.31C68.6574 2192.35 67.8234 2195.06 67.635 2196.14C67.0683 2199.37 69.2573 2201.81 72.292 2202.55C69.9219 2205.31 71.7278 2210.85 75.9038 2211.41C75.7227 2217.63 83.0054 2217.95 87.3612 2218.34C99.1291 2219.37 102.871 2218.49 110.752 2216.54C111.626 2216.33 115.411 2216.08 116.311 2216.08" stroke="white" stroke-width="5" stroke-miterlimit="1.5" stroke-linecap="round" stroke-linejoin="round"/>
<path d="M124.595 2182.24C122.164 2182.22 118.043 2181.15 116.013 2182.92C114.75 2184.02 115.569 2187.97 115.594 2189.53C115.694 2195.78 115.678 2202.03 115.678 2208.28C115.678 2210.89 114.514 2215.99 116.593 2218.05C118.526 2219.97 122.496 2219.44 124.957 2219.51" stroke="white" stroke-width="5" stroke-miterlimit="1.5" stroke-linecap="round" stroke-linejoin="round"/>
<path d="M117.991 865C119.69 1049.59 125.746 1234.53 103 1419" stroke="#F5F6FF" stroke-width="10.2744" stroke-miterlimit="1.5" stroke-linecap="round" stroke-linejoin="round"/>
<path d="M68.6095 1555C64.7121 1745.26 50.8179 1935.87 103 2126" stroke="#F5F6FF" stroke-width="10.2744" stroke-miterlimit="1.5" stroke-linecap="round" stroke-linejoin="round"/>
<path d="M87.2456 167C85.3469 350.926 78.5779 535.196 104 719" stroke="#F5F6FF" stroke-width="10.2744" stroke-miterlimit="1.5" stroke-linecap="round" stroke-linejoin="round"/>
<path fill-rule="evenodd" clip-rule="evenodd" d="M97.9534 171.961C177.214 156.651 183.528 29.44 96.4621 26.3351C10.8451 23.2808 1.62009 142.728 79.0814 163.27" fill="white"/>
<path d="M97.9534 171.961C177.214 156.651 183.528 29.44 96.4621 26.335C10.8451 23.2808 1.6201 142.728 79.0814 163.27" stroke="white" stroke-width="10.2744" stroke-miterlimit="1.5" stroke-linecap="round" stroke-linejoin="round"/>
<path d="M91.3142 718.039C12.0538 733.349 5.73966 860.56 92.8055 863.665C178.422 866.719 187.647 747.272 110.186 726.73" stroke="white" stroke-width="10.2744" stroke-miterlimit="1.5" stroke-linecap="round" stroke-linejoin="round"/>
<path d="M91.3144 1416.04C12.054 1431.35 5.73991 1558.56 92.8057 1561.66C178.423 1564.72 187.648 1445.27 110.186 1424.73" stroke="white" stroke-width="10.2744" stroke-miterlimit="1.5" stroke-linecap="round" stroke-linejoin="round"/>
<path d="M91.3142 2114.04C12.0538 2129.35 5.73966 2256.56 92.8055 2259.66C178.422 2262.72 187.647 2143.27 110.186 2122.73" stroke="white" stroke-width="10.2744" stroke-miterlimit="1.5" stroke-linecap="round" stroke-linejoin="round"/>
<path d="M79.5625 123.375C79.8958 122.958 80.3958 121.938 81.0625 120.312C81.6875 118.688 82.3958 116.75 83.1875 114.5C84.0208 112.25 84.875 109.833 85.75 107.25C86.625 104.625 87.4375 102.104 88.1875 99.6875C88.9792 97.2708 89.6458 95.1042 90.1875 93.1875C90.7708 91.2708 91.1667 89.8542 91.375 88.9375C90.7917 89.5625 90 90.3542 89 91.3125C88.0417 92.2708 86.9583 93.2708 85.75 94.3125C84.5833 95.3125 83.3542 96.3333 82.0625 97.375C80.7708 98.375 79.5208 99.2708 78.3125 100.062L76.75 97.875C81.0417 94.875 84.5417 92.0208 87.25 89.3125C89.9583 86.6042 92.125 84.2292 93.75 82.1875C95.375 80.1042 96.5625 78.4583 97.3125 77.25C98.1042 76 98.7083 75.375 99.125 75.375C99.4167 75.375 99.8542 75.4583 100.438 75.625C101.062 75.7917 101.688 76.0208 102.312 76.3125C102.938 76.5625 103.479 76.875 103.938 77.25C104.396 77.625 104.625 78.0208 104.625 78.4375C104.625 78.7708 104.125 80.1875 103.125 82.6875C102.167 85.1458 101.021 88.375 99.6875 92.375C99.0625 94.2917 98.3125 96.5833 97.4375 99.25C96.5625 101.917 95.6667 104.688 94.75 107.562C93.8333 110.438 92.9375 113.312 92.0625 116.188C91.1875 119.062 90.4375 121.667 89.8125 124C89.3542 124.083 88.8542 124.146 88.3125 124.188C87.3542 124.312 86.1042 124.375 84.5625 124.375C83.0208 124.375 81.4792 124.25 79.9375 124L79.5625 123.375Z" fill="#1560BD"/>
<path d="M102.25 807.298C103.125 807.298 103.833 807.173 104.375 806.923C104.958 806.673 105.438 806.278 105.812 805.736L106.812 806.173C106.354 807.59 105.771 809.153 105.062 810.861C104.396 812.569 103.542 814.069 102.5 815.361L101.875 815.611C100.25 815.528 98.8542 815.444 97.6875 815.361C96.5625 815.319 95.5625 815.278 94.6875 815.236C93.8125 815.194 93 815.153 92.25 815.111C91.5417 815.111 90.7708 815.111 89.9375 815.111C89.1875 815.111 88.125 815.111 86.75 815.111C85.3333 815.153 83.875 815.173 82.375 815.173C80.8333 815.215 79.375 815.257 78 815.298C76.625 815.382 75.5625 815.444 74.8125 815.486L74.1875 814.111C76.0208 812.778 78.0417 811.153 80.25 809.236C82.4167 807.319 84.6042 805.215 86.8125 802.923C89.0208 800.632 91.1458 798.215 93.1875 795.673C95.2292 793.132 97.0417 790.569 98.625 787.986C100.208 785.361 101.479 782.778 102.438 780.236C103.396 777.694 103.875 775.278 103.875 772.986C103.875 772.694 103.771 772.34 103.562 771.923C103.396 771.465 103.146 771.028 102.812 770.611C102.521 770.194 102.167 769.861 101.75 769.611C101.333 769.319 100.896 769.173 100.438 769.173C98.6458 769.173 97.1667 769.632 96 770.548C94.8333 771.423 93.8958 772.548 93.1875 773.923C92.5208 775.257 92.0208 776.715 91.6875 778.298C91.3958 779.882 91.2083 781.361 91.125 782.736L90.8125 782.986C89.0208 781.694 87.6042 780.34 86.5625 778.923C85.4792 777.465 84.9375 776.132 84.9375 774.923C84.9375 773.882 85.375 772.819 86.25 771.736C87.125 770.611 88.3542 769.611 89.9375 768.736C91.5625 767.819 93.5208 767.09 95.8125 766.548C98.1042 765.965 100.667 765.673 103.5 765.673C104.917 765.673 106.25 766.007 107.5 766.673C108.792 767.34 109.896 768.194 110.812 769.236C111.771 770.236 112.521 771.361 113.062 772.611C113.604 773.861 113.875 775.048 113.875 776.173C113.875 779.215 113 782.132 111.25 784.923C109.542 787.673 107.354 790.319 104.688 792.861C102.021 795.403 99.0625 797.882 95.8125 800.298C92.6042 802.673 89.5 805.007 86.5 807.298H102.25Z" fill="white"/>
<path d="M89.0625 1486.92C91.7708 1485.59 94.0625 1483.94 95.9375 1481.99C97.8542 1479.99 99.3958 1478.01 100.562 1476.05C101.771 1474.09 102.646 1472.32 103.188 1470.74C103.729 1469.15 104 1468.07 104 1467.49C104 1466.4 103.708 1465.59 103.125 1465.05C102.542 1464.47 101.771 1464.17 100.812 1464.17C99.9375 1464.17 99.0208 1464.53 98.0625 1465.24C97.1042 1465.9 96.2083 1466.82 95.375 1467.99C94.5417 1469.11 93.8542 1470.42 93.3125 1471.92C92.7708 1473.42 92.5 1475.01 92.5 1476.67L92.25 1476.99C90.4583 1475.69 89.0625 1474.42 88.0625 1473.17C87.1042 1471.88 86.625 1470.63 86.625 1469.42C86.625 1468.38 87 1467.34 87.75 1466.3C88.5 1465.22 89.6042 1464.28 91.0625 1463.49C92.5208 1462.65 94.3333 1461.99 96.5 1461.49C98.6667 1460.94 101.167 1460.67 104 1460.67C105.5 1460.67 106.812 1460.97 107.938 1461.55C109.062 1462.09 110 1462.8 110.75 1463.67C111.542 1464.51 112.125 1465.42 112.5 1466.42C112.917 1467.38 113.125 1468.26 113.125 1469.05C113.125 1470.47 112.792 1471.82 112.125 1473.11C111.458 1474.36 110.542 1475.57 109.375 1476.74C108.25 1477.9 106.896 1479.05 105.312 1480.17C103.729 1481.26 102.021 1482.32 100.188 1483.36C101.062 1483.69 101.938 1484.15 102.812 1484.74C103.688 1485.28 104.458 1485.97 105.125 1486.8C105.792 1487.59 106.333 1488.55 106.75 1489.67C107.167 1490.76 107.375 1492.03 107.375 1493.49C107.375 1495.69 107.021 1497.94 106.312 1500.24C105.646 1502.49 104.688 1504.69 103.438 1506.86C102.188 1508.99 100.688 1510.99 98.9375 1512.86C97.2292 1514.78 95.3333 1516.44 93.25 1517.86C91.1667 1519.28 88.9583 1520.38 86.625 1521.17C84.25 1522.01 81.8125 1522.42 79.3125 1522.42C78.7292 1522.42 77.9583 1522.34 77 1522.17C76 1522.01 75.0208 1521.74 74.0625 1521.36C73.1042 1520.99 72.2708 1520.49 71.5625 1519.86C70.8542 1519.24 70.5 1518.47 70.5 1517.55C70.5 1516.63 70.8958 1515.57 71.6875 1514.36C72.4792 1513.19 73.4792 1511.9 74.6875 1510.49L76.25 1510.99C75.9167 1511.82 75.7708 1512.69 75.8125 1513.61C75.8542 1514.57 76.0833 1515.44 76.5 1516.24C76.9167 1517.03 77.5417 1517.69 78.375 1518.24C79.2083 1518.78 80.25 1519.05 81.5 1519.05C83.0417 1519.05 84.7708 1518.61 86.6875 1517.74C88.5625 1516.9 90.3333 1515.61 92 1513.86C93.6667 1512.15 95.0625 1510.01 96.1875 1507.42C97.3125 1504.8 97.875 1501.74 97.875 1498.24C97.875 1496.53 97.625 1495.09 97.125 1493.92C96.625 1492.72 95.9792 1491.74 95.1875 1490.99C94.4375 1490.24 93.5833 1489.67 92.625 1489.3C91.6667 1488.92 90.7292 1488.69 89.8125 1488.61L89.0625 1486.92Z" fill="white"/>
</svg>
