<svg width="92" height="91" viewBox="0 0 92 91" fill="none" xmlns="http://www.w3.org/2000/svg">
<path fill-rule="evenodd" clip-rule="evenodd" d="M33.9618 75.8021C41.9483 79.7808 66.4904 80.8141 78.7836 58.1314C81.7909 52.5827 72.5044 46.7633 68.6177 41.8342C75.187 32.0924 71.2552 23.0951 63.6124 19.3771C47.8508 11.7101 24.8035 20.3175 17.3024 34.8781C14.2622 40.7805 11.713 49.0732 19.5204 55.5401C25.2261 60.2661 28.0212 58.3039 30.4779 58.901C31.9711 64.4293 32.8274 70.1829 33.9618 75.8021Z" stroke="white" stroke-width="5" stroke-miterlimit="1.5" stroke-linecap="round" stroke-linejoin="round"/>
<path d="M68.9615 42.3382C66.5197 39.0895 63.8472 35.9164 61.064 32.9535" stroke="white" stroke-width="5" stroke-miterlimit="1.5" stroke-linecap="round" stroke-linejoin="round"/>
<path d="M30.4505 58.9434C29.8806 54.9812 29.7873 50.9444 29.2116 46.9779" stroke="white" stroke-width="5" stroke-miterlimit="1.5" stroke-linecap="round" stroke-linejoin="round"/>
<path d="M30.6678 3.07656C32.2746 8.44209 35.0699 13.6039 37.1364 18.8298" stroke="white" stroke-width="5" stroke-miterlimit="1.5" stroke-linecap="round" stroke-linejoin="round"/>
<path d="M77.7174 55.9492C74.8865 53.835 71.2405 53.2938 67.808 53.1333C59.0962 52.7272 48.6041 56.1026 42.8739 63.0529" stroke="white" stroke-width="5" stroke-miterlimit="1.5" stroke-linecap="round" stroke-linejoin="round"/>
</svg>
