<svg width="37" height="37" viewBox="0 0 37 37" fill="none" xmlns="http://www.w3.org/2000/svg">
<path fill-rule="evenodd" clip-rule="evenodd" d="M31.4543 34.1753C36.9148 32.9463 35.8266 25.3827 35.7334 21.2508C35.7067 20.0705 35.7028 18.8898 35.6647 17.7095C35.6182 16.2647 35.5414 14.8214 35.459 13.3783C35.3509 11.4869 35.1887 9.64062 34.8894 7.76844C34.7408 6.84017 34.5765 5.88799 34.1702 5.0319C32.2088 0.899669 27.3295 1.25852 23.4885 1.13053C19.5763 1.00041 15.6563 0.955002 11.742 1.05242C9.22778 1.11534 6.71823 1.00291 4.48413 2.18182C1.71639 3.64266 1.41025 6.78331 1.25631 9.61931C0.935632 15.5238 0.785632 21.8159 1.60689 27.6867C2.04489 30.8185 3.0908 33.7634 6.5486 34.4808C10.3381 35.2672 14.2986 35.0014 18.0956 34.7867C21.4254 34.5986 28.1234 34.4064 31.4543 34.1753Z" fill="white" stroke="#1560BD" stroke-width="2" stroke-miterlimit="1.5" stroke-linecap="round" stroke-linejoin="round"/>
<path d="M26.8659 13.3078V13.8691C26.8659 19.522 22.5297 26 14.5951 26C12.2528 26.005 9.96011 25.3317 8 24.0633C8.34041 24.109 8.68379 24.1297 9.0273 24.1251C10.969 24.1303 12.856 23.4897 14.3851 22.3063C13.4831 22.2931 12.6082 21.9991 11.8847 21.466C11.1613 20.9329 10.6262 20.1878 10.3554 19.3367C10.6241 19.393 10.898 19.4213 11.1727 19.4209C11.5562 19.421 11.9381 19.37 12.3078 19.2693C11.3308 19.0767 10.4518 18.5543 9.82132 17.7914C9.1908 17.0285 8.84792 16.0726 8.85135 15.0873V15.0311C9.44911 15.3614 10.1193 15.5425 10.8038 15.5588C9.89261 14.9658 9.24478 14.051 8.99266 13.0014C8.74054 11.9518 8.90316 10.8466 9.4473 9.91159C10.5315 11.2305 11.8842 12.3089 13.4175 13.0768C14.9507 13.8448 16.6302 14.2849 18.3468 14.3687C18.2618 14.0501 18.2217 13.7214 18.2276 13.392C18.1956 12.5213 18.4357 11.662 18.9153 10.9311C19.3948 10.2002 20.0905 9.63328 20.9075 9.30747C21.7245 8.98166 22.6232 8.91282 23.4812 9.11032C24.3392 9.30782 25.1148 9.76206 25.7024 10.4112C26.6683 10.2184 27.5948 9.86741 28.4438 9.37269C28.1218 10.3783 27.437 11.2315 26.5197 11.7697C27.3765 11.6529 28.2119 11.4147 29 11.0624C28.4288 11.93 27.7062 12.6903 26.8659 13.3078V13.3078Z" stroke="#1560BD" stroke-width="1.5" stroke-linecap="round" stroke-linejoin="round"/>
</svg>
