<svg width="104" height="115" viewBox="0 0 104 115" fill="none" xmlns="http://www.w3.org/2000/svg">
<path fill-rule="evenodd" clip-rule="evenodd" d="M35.1627 64.2378C30.1984 62.5199 25.4403 60.8139 20.2839 59.6197C27.7925 40.4 36.0821 21.4991 45.4835 3.13105C52.9689 4.88057 59.6881 8.1533 66.0985 12.3503C55.1131 29.226 45.9397 47.2122 35.2118 64.2559C35.196 64.2498 35.1796 64.2446 35.1627 64.2378Z" stroke="#1560BD" stroke-width="5" stroke-miterlimit="1.5" stroke-linecap="round" stroke-linejoin="round"/>
<path d="M24.3048 74.8224C16.9293 67.564 4.78461 76.3765 9.37495 85.7235C13.4353 93.9905 27.1283 90.097 26.6036 81.0683" stroke="#1560BD" stroke-width="5" stroke-miterlimit="1.5" stroke-linecap="round" stroke-linejoin="round"/>
<path d="M96.6233 46.5545C86.3222 59.4434 76.3759 72.747 65.3689 85.0556L52.42 74.5462C59.8644 61.6517 68.7463 46.1806 77.8683 32.669C84.571 36.4732 91.2062 41.029 96.6233 46.5545Z" stroke="#1560BD" stroke-width="5" stroke-miterlimit="1.5" stroke-linecap="round" stroke-linejoin="round"/>
<path d="M52.9227 93.0133C46.8602 86.7794 35.6248 94.7318 39.6184 102.661C43.828 111.02 56.553 104.937 54.9433 96.5051" stroke="#1560BD" stroke-width="5" stroke-miterlimit="1.5" stroke-linecap="round" stroke-linejoin="round"/>
</svg>
