<svg width="82" height="70" viewBox="0 0 82 70" fill="none" xmlns="http://www.w3.org/2000/svg">
<g opacity="0.45" filter="url(#filter0_f_174_42)">
<g clip-path="url(#clip0_174_42)">
<path fill-rule="evenodd" clip-rule="evenodd" d="M38.1205 24.6049C38.2719 24.605 38.4196 24.6517 38.5435 24.7387C38.6674 24.8257 38.7615 24.9488 38.813 25.0912L44.0142 39.3924L46.2686 33.1922C46.3206 33.0503 46.4149 32.9279 46.5388 32.8414C46.6626 32.755 46.8101 32.7087 46.9611 32.7089H52.1182C52.3136 32.7089 52.501 32.7865 52.6391 32.9246C52.7773 33.0628 52.8549 33.2502 52.8549 33.4456C52.8549 33.641 52.7773 33.8284 52.6391 33.9665C52.501 34.1047 52.3136 34.1823 52.1182 34.1823H47.4768L44.7068 41.8C44.6551 41.9422 44.561 42.0651 44.4371 42.152C44.3132 42.2388 44.1655 42.2854 44.0142 42.2854C43.8629 42.2854 43.7153 42.2388 43.5914 42.152C43.4675 42.0651 43.3733 41.9422 43.3217 41.8L38.1205 27.4988L35.8661 33.6975C35.8144 33.8397 35.7202 33.9624 35.5963 34.0491C35.4724 34.1359 35.3248 34.1824 35.1736 34.1823H30.0165C29.8211 34.1823 29.6337 34.1047 29.4956 33.9665C29.3574 33.8284 29.2798 33.641 29.2798 33.4456C29.2798 33.2502 29.3574 33.0628 29.4956 32.9246C29.6337 32.7865 29.8211 32.7089 30.0165 32.7089H34.6579L37.4279 25.0912C37.4794 24.9488 37.5735 24.8257 37.6974 24.7387C37.8213 24.6517 37.9691 24.605 38.1205 24.6049Z" fill="#E154B2"/>
</g>
<path fill-rule="evenodd" clip-rule="evenodd" d="M32 56.6656C32.1062 56.6484 32.2107 56.6222 32.3125 56.5875C32.55 56.5156 32.8563 56.3969 33.2313 56.2188C33.9813 55.8656 34.9406 55.3125 36.0219 54.5531C38.7393 52.5971 41.1484 50.2449 43.1688 47.575C47.9406 41.3344 51.9406 31.8531 50.2094 18.8625C50.1702 18.5836 50.0532 18.3214 49.872 18.1059C49.6907 17.8903 49.4524 17.7302 49.1844 17.6438C47.15 16.9781 43.7156 15.8937 40.3188 14.9719C36.85 14.0312 33.6594 13.3344 32 13.3344V56.6656ZM22.85 11.75C26.2406 10.8281 29.8438 10 32 10C34.1563 10 37.7594 10.8281 41.15 11.75C44.6188 12.6875 48.1156 13.7969 50.1719 14.4688C51.0316 14.7527 51.7938 15.2733 52.3709 15.9709C52.948 16.6686 53.3166 17.5148 53.4344 18.4125C55.2969 32.4031 50.975 42.7719 45.7313 49.6313C43.5076 52.5656 40.8562 55.1495 37.8656 57.2969C36.8315 58.0399 35.7359 58.6933 34.5906 59.25C33.7156 59.6625 32.775 60 32 60C31.225 60 30.2875 59.6625 29.4094 59.25C28.2641 58.6934 27.1685 58.0399 26.1344 57.2969C23.1439 55.1495 20.4925 52.5655 18.2688 49.6313C13.025 42.7719 8.70314 32.4031 10.5656 18.4125C10.6834 17.5148 11.052 16.6686 11.6291 15.9709C12.2062 15.2733 12.9684 14.7527 13.8281 14.4688C16.8131 13.49 19.8213 12.5835 22.85 11.75Z" fill="#1560BD"/>
</g>
<path fill-rule="evenodd" clip-rule="evenodd" d="M44.5 60.5989C44.6083 60.5813 44.7149 60.5547 44.8188 60.5192C45.061 60.4459 45.3734 60.3248 45.7559 60.1431C46.5209 59.7829 47.4995 59.2188 48.6023 58.4442C51.3741 56.449 53.8313 54.0498 55.8921 51.3265C60.7595 44.9611 64.8395 35.2902 63.0736 22.0398C63.0336 21.7553 62.9143 21.4878 62.7294 21.268C62.5445 21.0481 62.3015 20.8848 62.0281 20.7966C59.953 20.1177 56.45 19.0116 52.9851 18.0713C49.447 17.1119 46.1926 16.4011 44.5 16.4011V60.5989ZM35.167 14.785C38.6255 13.8447 42.3006 13 44.5 13C46.6994 13 50.3746 13.8447 53.833 14.785C57.3711 15.7413 60.938 16.8728 63.0353 17.5581C63.9122 17.8477 64.6897 18.3788 65.2783 19.0904C65.867 19.8019 66.243 20.6651 66.3631 21.5807C68.2628 35.8512 63.8545 46.4273 58.5059 53.4239C56.2378 56.4169 53.5334 59.0525 50.483 61.2428C49.4282 62.0007 48.3106 62.6672 47.1425 63.235C46.25 63.6558 45.2905 64 44.5 64C43.7095 64 42.7533 63.6558 41.8576 63.235C40.6894 62.6672 39.5718 62.0007 38.5171 61.2428C35.4667 59.0525 32.7623 56.4168 30.4941 53.4239C25.1455 46.4273 20.7372 35.8512 22.637 21.5807C22.7571 20.6651 23.1331 19.8019 23.7217 19.0904C24.3104 18.3788 25.0878 17.8477 25.9647 17.5581C29.0094 16.5598 32.0777 15.6352 35.167 14.785Z" fill="#1560BD"/>
<path fill-rule="evenodd" clip-rule="evenodd" d="M57 22.75C57.2569 22.7501 57.5075 22.8254 57.7178 22.9656C57.928 23.1059 58.0877 23.3042 58.175 23.5337L67 46.5855L70.825 36.5915C70.9132 36.3629 71.0732 36.1655 71.2833 36.0262C71.4935 35.8868 71.7437 35.8122 72 35.8125H80.75C81.0815 35.8125 81.3995 35.9376 81.6339 36.1603C81.8683 36.383 82 36.6851 82 37C82 37.3149 81.8683 37.617 81.6339 37.8397C81.3995 38.0624 81.0815 38.1875 80.75 38.1875H72.875L68.175 50.4662C68.0874 50.6955 67.9277 50.8936 67.7174 51.0335C67.5072 51.1735 67.2567 51.2486 67 51.2486C66.7433 51.2486 66.4928 51.1735 66.2826 51.0335C66.0723 50.8936 65.9126 50.6955 65.825 50.4662L57 27.4145L53.175 37.4061C53.0872 37.6352 52.9274 37.833 52.7172 37.9728C52.507 38.1126 52.2566 38.1876 52 38.1875H43.25C42.9185 38.1875 42.6005 38.0624 42.3661 37.8397C42.1317 37.617 42 37.3149 42 37C42 36.6851 42.1317 36.383 42.3661 36.1603C42.6005 35.9376 42.9185 35.8125 43.25 35.8125H51.125L55.825 23.5337C55.9123 23.3042 56.072 23.1059 56.2822 22.9656C56.4925 22.8254 56.7431 22.7501 57 22.75Z" fill="#E16D54"/>
<defs>
<filter id="filter0_f_174_42" x="-3" y="0" width="70" height="70" filterUnits="userSpaceOnUse" color-interpolation-filters="sRGB">
<feFlood flood-opacity="0" result="BackgroundImageFix"/>
<feBlend mode="normal" in="SourceGraphic" in2="BackgroundImageFix" result="shape"/>
<feGaussianBlur stdDeviation="5" result="effect1_foregroundBlur_174_42"/>
</filter>
<clipPath id="clip0_174_42">
<rect width="23.5751" height="23.5751" fill="white" transform="translate(29.2798 21.658)"/>
</clipPath>
</defs>
</svg>
