<svg width="107" height="81" viewBox="0 0 107 81" fill="none" xmlns="http://www.w3.org/2000/svg">
<g opacity="0.45" filter="url(#filter0_f_174_31)">
<g clip-path="url(#clip0_174_31)">
<path d="M28.5127 49.9324C28.7685 52.9363 31.3064 55.2758 35.8572 55.5529V57.7696H37.8767V55.5371C42.589 55.2285 45.3423 52.8733 45.3423 49.4537C45.3423 46.3459 43.2353 44.7432 39.4688 43.912L37.8767 43.5593V37.5232C39.8963 37.7373 41.182 38.7701 41.4917 40.1996H45.0327C44.7769 37.3059 42.1245 35.042 37.8767 34.7964V32.5797H35.8572V34.8436C31.8349 35.212 29.0916 37.4759 29.0916 40.6782C29.0916 43.5121 31.1314 45.3132 34.5209 46.0531L35.8572 46.3617V52.7662C33.7871 52.4734 32.4172 51.4123 32.1075 49.9324H28.5127ZM35.8403 43.1122C33.8544 42.6808 32.7773 41.8023 32.7773 40.4798C32.7773 38.9999 33.9386 37.8916 35.8572 37.5673V43.109H35.8403V43.1122ZM38.1695 46.8686C40.5829 47.3913 41.697 48.2383 41.697 49.734C41.697 51.4406 40.3103 52.6119 37.8767 52.826V46.8057L38.1695 46.8686Z" fill="#1560BD"/>
<path d="M36.9274 67.2158C30.6785 67.2158 24.6856 64.8936 20.2669 60.7601C15.8483 56.6265 13.3659 51.0203 13.3659 45.1746C13.3659 39.3289 15.8483 33.7227 20.2669 29.5891C24.6856 25.4556 30.6785 23.1334 36.9274 23.1334C43.1763 23.1334 49.1693 25.4556 53.5879 29.5891C58.0066 33.7227 60.4889 39.3289 60.4889 45.1746C60.4889 51.0203 58.0066 56.6265 53.5879 60.7601C49.1693 64.8936 43.1763 67.2158 36.9274 67.2158ZM36.9274 70.3645C44.069 70.3645 50.9181 67.7106 55.968 62.9866C61.0179 58.2625 63.8549 51.8554 63.8549 45.1746C63.8549 38.4938 61.0179 32.0867 55.968 27.3626C50.9181 22.6386 44.069 19.9847 36.9274 19.9847C29.7858 19.9847 22.9367 22.6386 17.8869 27.3626C12.837 32.0867 10 38.4938 10 45.1746C10 51.8554 12.837 58.2625 17.8869 62.9866C22.9367 67.7106 29.7858 70.3645 36.9274 70.3645Z" fill="#1560BD"/>
<path d="M36.9275 62.4927C32.0177 62.4927 27.3089 60.6681 23.8371 57.4203C20.3653 54.1726 18.4149 49.7677 18.4149 45.1746C18.4149 40.5816 20.3653 36.1767 23.8371 32.9289C27.3089 29.6811 32.0177 27.8565 36.9275 27.8565C41.8374 27.8565 46.5461 29.6811 50.0179 32.9289C53.4897 36.1767 55.4401 40.5816 55.4401 45.1746C55.4401 49.7677 53.4897 54.1726 50.0179 57.4203C46.5461 60.6681 41.8374 62.4927 36.9275 62.4927ZM36.9275 64.0671C39.5796 64.0671 42.2058 63.5784 44.656 62.629C47.1063 61.6795 49.3326 60.2879 51.2079 58.5336C53.0833 56.7793 54.5709 54.6966 55.5858 52.4044C56.6007 50.1123 57.1231 47.6556 57.1231 45.1746C57.1231 42.6936 56.6007 40.2369 55.5858 37.9448C54.5709 35.6526 53.0833 33.57 51.2079 31.8156C49.3326 30.0613 47.1063 28.6697 44.656 27.7203C42.2058 26.7708 39.5796 26.2822 36.9275 26.2822C31.5713 26.2822 26.4345 28.2726 22.6471 31.8156C18.8597 35.3587 16.7319 40.164 16.7319 45.1746C16.7319 50.1852 18.8597 54.9906 22.6471 58.5336C26.4345 62.0766 31.5713 64.0671 36.9275 64.0671Z" fill="#1560BD"/>
</g>
</g>
<g clip-path="url(#clip1_174_31)">
<path d="M40.978 53.568C41.2338 56.5719 43.7717 58.9114 48.3225 59.1885V61.4052H50.342V59.1727C55.0543 58.8642 57.8077 56.5089 57.8077 53.0894C57.8077 49.9816 55.7006 48.3789 51.9341 47.5476L50.342 47.1949V41.1588C52.3616 41.3729 53.6474 42.4057 53.957 43.8352H57.498C57.2422 40.9415 54.5898 38.6776 50.342 38.432V36.2153H48.3225V38.4792C44.3002 38.8476 41.557 41.1116 41.557 44.3138C41.557 47.1477 43.5967 48.9488 46.9862 49.6887L48.3225 49.9973V56.4018C46.2524 56.109 44.8825 55.0479 44.5728 53.568H40.978ZM48.3057 46.7478C46.3198 46.3164 45.2427 45.4379 45.2427 44.1155C45.2427 42.6356 46.4039 41.5272 48.3225 41.2029V46.7447H48.3057V46.7478ZM50.6349 50.5043C53.0482 51.0269 54.1624 51.874 54.1624 53.3696C54.1624 55.0762 52.7756 56.2476 50.342 56.4617V50.4413L50.6349 50.5043Z" fill="#1560BD"/>
<path d="M49.3928 70.8514C43.1439 70.8514 37.1509 68.5292 32.7323 64.3957C28.3136 60.2622 25.8313 54.6559 25.8313 48.8102C25.8313 42.9645 28.3136 37.3583 32.7323 33.2248C37.1509 29.0912 43.1439 26.769 49.3928 26.769C55.6417 26.769 61.6346 29.0912 66.0533 33.2248C70.4719 37.3583 72.9543 42.9645 72.9543 48.8102C72.9543 54.6559 70.4719 60.2622 66.0533 64.3957C61.6346 68.5292 55.6417 70.8514 49.3928 70.8514ZM49.3928 74.0001C56.5344 74.0001 63.3835 71.3462 68.4333 66.6222C73.4832 61.8982 76.3202 55.491 76.3202 48.8102C76.3202 42.1294 73.4832 35.7223 68.4333 30.9983C63.3835 26.2742 56.5344 23.6203 49.3928 23.6203C42.2512 23.6203 35.4021 26.2742 30.3522 30.9983C25.3023 35.7223 22.4653 42.1294 22.4653 48.8102C22.4653 55.491 25.3023 61.8982 30.3522 66.6222C35.4021 71.3462 42.2512 74.0001 49.3928 74.0001Z" fill="#1560BD"/>
<path d="M49.3928 66.1283C44.483 66.1283 39.7742 64.3037 36.3024 61.056C32.8307 57.8082 30.8802 53.4033 30.8802 48.8102C30.8802 44.2172 32.8307 39.8123 36.3024 36.5645C39.7742 33.3167 44.483 31.4922 49.3928 31.4922C54.3027 31.4922 59.0114 33.3167 62.4832 36.5645C65.955 39.8123 67.9055 44.2172 67.9055 48.8102C67.9055 53.4033 65.955 57.8082 62.4832 61.056C59.0114 64.3037 54.3027 66.1283 49.3928 66.1283ZM49.3928 67.7027C52.045 67.7027 54.6711 67.214 57.1214 66.2646C59.5716 65.3151 61.7979 63.9235 63.6733 62.1692C65.5486 60.4149 67.0362 58.3322 68.0511 56.0401C69.066 53.7479 69.5884 51.2912 69.5884 48.8102C69.5884 46.3292 69.066 43.8725 68.0511 41.5804C67.0362 39.2883 65.5486 37.2056 63.6733 35.4513C61.7979 33.6969 59.5716 32.3053 57.1214 31.3559C54.6711 30.4065 52.045 29.9178 49.3928 29.9178C44.0366 29.9178 38.8998 31.9082 35.1124 35.4513C31.325 38.9943 29.1973 43.7996 29.1973 48.8102C29.1973 53.8208 31.325 58.6262 35.1124 62.1692C38.8998 65.7122 44.0366 67.7027 49.3928 67.7027Z" fill="#1560BD"/>
</g>
<path d="M101.96 32.2624C102.536 30.5459 103.942 28.7229 104.266 26.9627M104.266 26.9627C104.331 26.612 102.814 26.3783 102.627 26.3448C101.089 26.0692 99.258 26.4243 97.6945 26.4846M104.266 26.9627C100.663 28.5687 97.2268 30.5721 93.8308 32.6505C90.5539 34.6559 87.3147 36.7311 83.9999 38.5862" stroke="#E16D54" stroke-width="5" stroke-miterlimit="1.5" stroke-linecap="round" stroke-linejoin="round"/>
<path d="M81.925 12.5198C81.3489 14.2364 79.9428 16.0593 79.6189 17.8196M79.6189 17.8196C79.5541 18.1703 81.0713 18.4039 81.2582 18.4375C82.7966 18.7131 84.6273 18.358 86.1907 18.2977M79.6189 17.8196C83.2219 16.2136 86.6584 14.2102 90.0545 12.1318C93.3313 10.1264 96.5705 8.05121 99.8853 6.19611" stroke="#E16D54" stroke-width="5" stroke-miterlimit="1.5" stroke-linecap="round" stroke-linejoin="round"/>
<defs>
<filter id="filter0_f_174_31" x="0" y="9.98468" width="73.8547" height="70.3798" filterUnits="userSpaceOnUse" color-interpolation-filters="sRGB">
<feFlood flood-opacity="0" result="BackgroundImageFix"/>
<feBlend mode="normal" in="SourceGraphic" in2="BackgroundImageFix" result="shape"/>
<feGaussianBlur stdDeviation="5" result="effect1_foregroundBlur_174_31"/>
</filter>
<clipPath id="clip0_174_31">
<path d="M10 19.9847H13.475C41.299 19.9847 63.8549 42.5405 63.8549 70.3645H10V19.9847Z" fill="white"/>
</clipPath>
<clipPath id="clip1_174_31">
<rect width="53.8549" height="50.3798" fill="white" transform="translate(22.4653 23.6203)"/>
</clipPath>
</defs>
</svg>
