<svg width="71" height="70" viewBox="0 0 71 70" fill="none" xmlns="http://www.w3.org/2000/svg">
<g opacity="0.45" filter="url(#filter0_f_660_2)">
<path fill-rule="evenodd" clip-rule="evenodd" d="M32.5 10C30.3006 10 26.6255 10.8281 23.167 11.75C19.6289 12.6875 16.0621 13.7969 13.9647 14.4688C13.0878 14.7527 12.3104 15.2733 11.7217 15.9709C11.1331 16.6686 10.7571 17.5148 10.637 18.4125C8.7372 32.4031 13.1455 42.7719 18.4941 49.6313C20.7623 52.5655 23.4667 55.1495 26.5171 57.2969C27.7475 58.15 28.8886 58.8031 29.8576 59.25C30.7501 59.6625 31.7095 60 32.5 60C33.2905 60 34.2468 59.6625 35.1425 59.25C36.3106 58.6933 37.4282 58.0399 38.483 57.2969C41.5334 55.1495 44.2378 52.5656 46.5059 49.6313C51.8545 42.7719 56.2628 32.4031 54.3631 18.4125C54.2431 17.5144 53.8673 16.6676 53.2787 15.9695C52.69 15.2713 51.9125 14.7501 51.0353 14.4656C47.9907 13.4869 44.9223 12.5804 41.833 11.7469C38.3746 10.8313 34.6994 10 32.5 10ZM30.7469 36.5688L29.6313 25.6094C29.5888 25.2151 29.6314 24.8165 29.7562 24.4395C29.881 24.0624 30.0853 23.7153 30.3558 23.4206C30.6264 23.1259 30.957 22.8903 31.3264 22.729C31.6958 22.5677 32.0956 22.4844 32.5 22.4844C32.9044 22.4844 33.3042 22.5677 33.6736 22.729C34.043 22.8903 34.3737 23.1259 34.6442 23.4206C34.9147 23.7153 35.119 24.0624 35.2438 24.4395C35.3686 24.8165 35.4112 25.2151 35.3688 25.6094L34.2531 36.5688C34.2157 36.9993 34.0147 37.4004 33.6901 37.6926C33.3655 37.9849 32.9408 38.147 32.5 38.147C32.0593 38.147 31.6346 37.9849 31.3099 37.6926C30.9853 37.4004 30.7844 36.9993 30.7469 36.5688ZM32.5064 47.5C31.661 47.5 30.8503 47.1708 30.2525 46.5847C29.6547 45.9987 29.3189 45.2038 29.3189 44.375C29.3189 43.5462 29.6547 42.7513 30.2525 42.1653C30.8503 41.5792 31.661 41.25 32.5064 41.25C33.3518 41.25 34.1625 41.5792 34.7603 42.1653C35.3581 42.7513 35.6939 43.5462 35.6939 44.375C35.6939 45.2038 35.3581 45.9987 34.7603 46.5847C34.1625 47.1708 33.3518 47.5 32.5064 47.5Z" fill="#1560BD"/>
</g>
<path fill-rule="evenodd" clip-rule="evenodd" d="M45.5 13C43.3006 13 39.6255 13.8447 36.167 14.785C32.6289 15.7413 29.0621 16.8728 26.9647 17.5581C26.0878 17.8477 25.3104 18.3788 24.7217 19.0904C24.1331 19.8019 23.7571 20.6651 23.637 21.5807C21.7372 35.8512 26.1455 46.4273 31.4941 53.4239C33.7623 56.4168 36.4667 59.0525 39.5171 61.2428C40.7475 62.113 41.8886 62.7792 42.8576 63.235C43.7501 63.6558 44.7095 64 45.5 64C46.2905 64 47.2468 63.6558 48.1425 63.235C49.3106 62.6672 50.4282 62.0007 51.483 61.2428C54.5334 59.0525 57.2378 56.4169 59.5059 53.4239C64.8545 46.4273 69.2628 35.8512 67.3631 21.5807C67.2431 20.6647 66.8673 19.801 66.2786 19.0889C65.69 18.3768 64.9125 17.8451 64.0353 17.5549C60.9906 16.5567 57.9223 15.632 54.833 14.7818C51.3746 13.8479 47.6994 13 45.5 13ZM43.7469 40.1001L42.6313 28.9216C42.5888 28.5194 42.6314 28.1129 42.7562 27.7283C42.881 27.3436 43.0853 26.9896 43.3558 26.689C43.6263 26.3884 43.957 26.1481 44.3264 25.9836C44.6958 25.8191 45.0956 25.7341 45.5 25.7341C45.9044 25.7341 46.3042 25.8191 46.6736 25.9836C47.043 26.1481 47.3737 26.3884 47.6442 26.689C47.9147 26.9896 48.119 27.3436 48.2438 27.7283C48.3686 28.1129 48.4112 28.5194 48.3688 28.9216L47.2531 40.1001C47.2157 40.5393 47.0147 40.9484 46.6901 41.2465C46.3654 41.5446 45.9408 41.71 45.5 41.71C45.0593 41.71 44.6346 41.5446 44.3099 41.2465C43.9853 40.9484 43.7844 40.5393 43.7469 40.1001ZM45.5064 51.25C44.661 51.25 43.8503 50.9142 43.2525 50.3164C42.6547 49.7186 42.3189 48.9079 42.3189 48.0625C42.3189 47.2171 42.6547 46.4064 43.2525 45.8086C43.8503 45.2108 44.661 44.875 45.5064 44.875C46.3518 44.875 47.1625 45.2108 47.7603 45.8086C48.3581 46.4064 48.6939 47.2171 48.6939 48.0625C48.6939 48.9079 48.3581 49.7186 47.7603 50.3164C47.1625 50.9142 46.3518 51.25 45.5064 51.25Z" fill="#1560BD"/>
<defs>
<filter id="filter0_f_660_2" x="-3" y="0" width="71" height="70" filterUnits="userSpaceOnUse" color-interpolation-filters="sRGB">
<feFlood flood-opacity="0" result="BackgroundImageFix"/>
<feBlend mode="normal" in="SourceGraphic" in2="BackgroundImageFix" result="shape"/>
<feGaussianBlur stdDeviation="5" result="effect1_foregroundBlur_660_2"/>
</filter>
</defs>
</svg>
