<svg width="57" height="53" viewBox="0 0 57 53" fill="none" xmlns="http://www.w3.org/2000/svg">
<path fill-rule="evenodd" clip-rule="evenodd" d="M18.3155 13.3497C23.4792 8.54344 33.95 7.62721 42.6032 19.7052C44.7103 22.6462 49.7625 21.6228 51.1595 24.9956C54.7616 33.6914 37.7333 44.9897 31.2522 47.005C28.8263 47.7593 25.1482 48.8058 22.8338 47.1248C20.0983 45.1377 22.1951 40.3257 20.2258 37.7112C15.0467 30.8352 9.825 21.2522 18.3155 13.3497V13.3497Z" stroke="white" stroke-width="2" stroke-miterlimit="1.5" stroke-linecap="round" stroke-linejoin="round"/>
<path d="M25.0861 45.6569C24.41 45.1173 24.8101 44.3063 25.1696 43.6896C26.0201 42.2311 27.1951 41.0524 28.3877 39.8751C32.6289 35.6882 37.3482 31.2715 42.704 28.5525C44.4693 27.6564 49.0817 25.466 48.8229 29.2096" stroke="white" stroke-width="2" stroke-miterlimit="1.5" stroke-linecap="round" stroke-linejoin="round"/>
<path d="M22.8268 36.1285C24.6155 32.5323 27.1139 29.3379 30.2537 26.8337C31.8162 25.5874 33.6377 24.6503 35.3775 23.6858C38.1329 22.1587 41.132 21.0165 44.3194 21.1472" stroke="white" stroke-width="2" stroke-miterlimit="1.5" stroke-linecap="round" stroke-linejoin="round"/>
<path fill-rule="evenodd" clip-rule="evenodd" d="M32.7708 35.7149C33.5433 36.6069 34.8677 37.7646 36.049 37.9335C38.2784 38.2523 40.6487 36.7899 40.5319 34.3704C40.504 33.7945 40.3036 33.2185 40.0753 32.6966C39.8191 32.1112 39.2821 31.3144 38.8047 30.891C36.6317 32.3412 34.5506 34.106 32.7708 35.7149Z" stroke="white" stroke-width="2" stroke-miterlimit="1.5" stroke-linecap="round" stroke-linejoin="round"/>
<path fill-rule="evenodd" clip-rule="evenodd" d="M16.5851 15.1916C17.7379 13.8322 18.8423 12.6871 20.5216 11.7289C20.0296 11.0177 19.4224 10.4607 18.7354 9.77728C17.0042 8.05538 13.8382 8.03821 13.9299 10.9599C13.9767 12.4534 15.6157 14.1494 16.5851 15.1916Z" stroke="white" stroke-width="2" stroke-miterlimit="1.5" stroke-linecap="round" stroke-linejoin="round"/>
<path d="M49.3042 11.7954C48.2803 12.5546 47.2313 13.3108 46.2668 14.1457" stroke="white" stroke-width="2" stroke-miterlimit="1.5" stroke-linecap="round" stroke-linejoin="round"/>
<path d="M45.7817 1.29541C44.4457 4.05316 42.9529 6.70689 41.445 9.37187" stroke="white" stroke-width="2" stroke-miterlimit="1.5" stroke-linecap="round" stroke-linejoin="round"/>
<path d="M36.6863 2.53418C36.5406 3.8013 36.3914 5.06808 36.2405 6.33461" stroke="white" stroke-width="2" stroke-miterlimit="1.5" stroke-linecap="round" stroke-linejoin="round"/>
<path d="M11.4553 29.368C10.5216 29.5597 9.58554 29.7477 8.64938 29.9264" stroke="white" stroke-width="2" stroke-miterlimit="1.5" stroke-linecap="round" stroke-linejoin="round"/>
<path d="M13.5933 33.3081C11.1525 34.2796 8.81087 35.4461 6.53503 36.7535" stroke="white" stroke-width="2" stroke-miterlimit="1.5" stroke-linecap="round" stroke-linejoin="round"/>
<path d="M15.5273 36.9443C15.1104 38.1128 14.7592 39.2956 14.37 40.4723" stroke="white" stroke-width="2" stroke-miterlimit="1.5" stroke-linecap="round" stroke-linejoin="round"/>
</svg>
