<svg width="254" height="408" viewBox="0 0 254 408" fill="none" xmlns="http://www.w3.org/2000/svg">
<g opacity="0.15">
<path d="M160.519 270.767C110.241 304.447 57.3611 333.643 5.53091 364.711" stroke="#E154B2" stroke-width="5" stroke-miterlimit="1.5" stroke-linecap="round" stroke-linejoin="round"/>
<path d="M198.045 248.356C194.302 250.138 190.6 251.981 186.934 253.919" stroke="#E154B2" stroke-width="5" stroke-miterlimit="1.5" stroke-linecap="round" stroke-linejoin="round"/>
<path d="M-37.0624 334.731C34.582 300.747 102.722 256.531 169.646 214.179" stroke="#E154B2" stroke-width="5" stroke-miterlimit="1.5" stroke-linecap="round" stroke-linejoin="round"/>
<path d="M225.805 174.205C219.378 178.69 212.77 182.716 206.136 186.863" stroke="#E154B2" stroke-width="5" stroke-miterlimit="1.5" stroke-linecap="round" stroke-linejoin="round"/>
<path d="M108.317 202.844C91.4271 212.076 75.8631 223.575 59.4078 233.513C29.8721 251.351 -0.793558 266.916 -31.2496 283.065" stroke="#E154B2" stroke-width="5" stroke-miterlimit="1.5" stroke-linecap="round" stroke-linejoin="round"/>
<path d="M133.48 187.778C141.924 182.378 150.268 176.756 158.419 170.915" stroke="#E154B2" stroke-width="5" stroke-miterlimit="1.5" stroke-linecap="round" stroke-linejoin="round"/>
<path d="M14.0301 211.261C37.3093 196.893 61.1588 183.523 84.5062 169.3" stroke="#E154B2" stroke-width="5" stroke-miterlimit="1.5" stroke-linecap="round" stroke-linejoin="round"/>
<path d="M113.372 152.231C119.959 147.851 126.597 143.513 133.1 139.006" stroke="#E154B2" stroke-width="5" stroke-miterlimit="1.5" stroke-linecap="round" stroke-linejoin="round"/>
<path d="M-73.7289 214.39C-31.6274 193.473 8.08627 168.241 49.902 146.962" stroke="#E154B2" stroke-width="5" stroke-miterlimit="1.5" stroke-linecap="round" stroke-linejoin="round"/>
<path d="M69.5805 135.709C72.8536 133.884 76.1672 132.108 79.3729 130.166" stroke="#E154B2" stroke-width="5" stroke-miterlimit="1.5" stroke-linecap="round" stroke-linejoin="round"/>
<path d="M99.383 67.8534C62.7467 96.3625 20.726 121.896 -20.2924 143.604" stroke="#E154B2" stroke-width="5" stroke-miterlimit="1.5" stroke-linecap="round" stroke-linejoin="round"/>
<path d="M134.263 40.3389C130.821 42.9014 127.302 45.3137 123.694 47.6342" stroke="#E154B2" stroke-width="5" stroke-miterlimit="1.5" stroke-linecap="round" stroke-linejoin="round"/>
</g>
</svg>
