<svg width="184" height="408" viewBox="0 0 184 408" fill="none" xmlns="http://www.w3.org/2000/svg">
<g opacity="0.15">
<path d="M266.519 270.766C216.241 304.446 163.361 333.643 111.531 364.711" stroke="#E154B2" stroke-width="5" stroke-miterlimit="1.5" stroke-linecap="round" stroke-linejoin="round"/>
<path d="M68.9378 334.73C140.582 300.747 208.722 256.53 275.646 214.179" stroke="#E154B2" stroke-width="5" stroke-miterlimit="1.5" stroke-linecap="round" stroke-linejoin="round"/>
<path d="M214.317 202.843C197.427 212.075 181.863 223.575 165.408 233.513C135.872 251.35 105.206 266.915 74.7504 283.064" stroke="#E154B2" stroke-width="5" stroke-miterlimit="1.5" stroke-linecap="round" stroke-linejoin="round"/>
<path d="M120.03 211.26C143.309 196.892 167.159 183.522 190.506 169.3" stroke="#E154B2" stroke-width="5" stroke-miterlimit="1.5" stroke-linecap="round" stroke-linejoin="round"/>
<path d="M32.2708 214.389C74.3723 193.472 114.086 168.24 155.902 146.962" stroke="#E154B2" stroke-width="5" stroke-miterlimit="1.5" stroke-linecap="round" stroke-linejoin="round"/>
<path d="M175.58 135.709C178.854 133.884 182.167 132.107 185.373 130.165" stroke="#E154B2" stroke-width="5" stroke-miterlimit="1.5" stroke-linecap="round" stroke-linejoin="round"/>
<path d="M205.383 67.8529C168.747 96.362 126.726 121.896 85.7076 143.603" stroke="#E154B2" stroke-width="5" stroke-miterlimit="1.5" stroke-linecap="round" stroke-linejoin="round"/>
</g>
</svg>
