<svg width="50" height="51" viewBox="0 0 50 51" fill="none" xmlns="http://www.w3.org/2000/svg">
<path fill-rule="evenodd" clip-rule="evenodd" d="M25 0C22.8438 0 19.2406 0.844688 15.85 1.785C12.3813 2.74125 8.88439 3.87281 6.82814 4.55813C5.96843 4.84771 5.20624 5.3788 4.62913 6.09036C4.05203 6.80192 3.68341 7.66511 3.56564 8.58075C1.70314 22.8512 6.02502 33.4273 11.2688 40.4239C13.4925 43.4168 16.1439 46.0525 19.1344 48.2428C20.3406 49.113 21.4594 49.7792 22.4094 50.235C23.2844 50.6558 24.225 51 25 51C25.775 51 26.7125 50.6558 27.5906 50.235C28.7359 49.6672 29.8315 49.0007 30.8656 48.2428C33.8562 46.0525 36.5076 43.4169 38.7313 40.4239C43.975 33.4273 48.2969 22.8512 46.4344 8.58075C46.3168 7.66467 45.9483 6.80098 45.3712 6.08887C44.7941 5.37676 44.0318 4.8451 43.1719 4.55494C40.1869 3.55665 37.1787 2.63201 34.15 1.78181C30.7594 0.847875 27.1563 0 25 0ZM23.2813 27.1001L22.1875 15.9216C22.1459 15.5194 22.1876 15.1129 22.31 14.7283C22.4324 14.3436 22.6327 13.9896 22.8979 13.689C23.1631 13.3884 23.4873 13.1481 23.8494 12.9836C24.2116 12.8191 24.6036 12.7341 25 12.7341C25.3965 12.7341 25.7885 12.8191 26.1506 12.9836C26.5127 13.1481 26.8369 13.3884 27.1021 13.689C27.3673 13.9896 27.5676 14.3436 27.69 14.7283C27.8124 15.1129 27.8541 15.5194 27.8125 15.9216L26.7188 27.1001C26.682 27.5393 26.485 27.9484 26.1667 28.2465C25.8485 28.5446 25.4321 28.71 25 28.71C24.5679 28.71 24.1515 28.5446 23.8333 28.2465C23.515 27.9484 23.318 27.5393 23.2813 27.1001ZM25.0063 38.25C24.1775 38.25 23.3826 37.9142 22.7966 37.3164C22.2105 36.7186 21.8813 35.9079 21.8813 35.0625C21.8813 34.2171 22.2105 33.4064 22.7966 32.8086C23.3826 32.2108 24.1775 31.875 25.0063 31.875C25.8351 31.875 26.6299 32.2108 27.216 32.8086C27.802 33.4064 28.1313 34.2171 28.1313 35.0625C28.1313 35.9079 27.802 36.7186 27.216 37.3164C26.6299 37.9142 25.8351 38.25 25.0063 38.25Z" fill="#1560BD"/>
</svg>
