<svg width="86" height="85" viewBox="0 0 86 85" fill="none" xmlns="http://www.w3.org/2000/svg">
<path fill-rule="evenodd" clip-rule="evenodd" d="M73.8109 37.8986C73.2838 29.4275 62.3357 8.71954 37.5157 9.3807C31.4441 9.54236 31.0625 19.9598 28.8247 25.5057C17.5444 24.7273 11.9376 32.2453 12.5165 40.3093C13.7108 56.9393 31.9746 71.8308 47.7194 71.0849C54.1016 70.7822 62.2397 68.9381 63.8727 59.4312C65.0661 52.4834 62.0857 51.1142 61.4012 48.8065C65.2902 44.9473 69.6735 41.5055 73.8109 37.8986Z" stroke="#00C2FF" stroke-width="5" stroke-miterlimit="1.5" stroke-linecap="round" stroke-linejoin="round"/>
<path d="M29.0793 24.9834C27.5467 28.5398 26.1881 32.2504 25.0579 35.9522" stroke="#00C2FF" stroke-width="5" stroke-miterlimit="1.5" stroke-linecap="round" stroke-linejoin="round"/>
<path d="M61.4499 48.8086C58.4219 51.1624 55.1023 53.1592 52.0735 55.5198" stroke="#00C2FF" stroke-width="5" stroke-miterlimit="1.5" stroke-linecap="round" stroke-linejoin="round"/>
<path d="M14.7842 75.2C18.4828 71.3246 21.4398 66.567 24.801 62.3794" stroke="#00C2FF" stroke-width="5" stroke-miterlimit="1.5" stroke-linecap="round" stroke-linejoin="round"/>
<path d="M36.2112 11.2964C35.8114 14.6338 37.1147 17.8947 38.6326 20.7985C42.4862 28.1679 50.348 35.2056 58.898 36.6203" stroke="#00C2FF" stroke-width="5" stroke-miterlimit="1.5" stroke-linecap="round" stroke-linejoin="round"/>
</svg>
