<svg width="46" height="46" viewBox="0 0 46 46" fill="none" xmlns="http://www.w3.org/2000/svg">
<path d="M10.3674 5.4054L10.2059 4.41852L10.2059 4.41852L10.3674 5.4054ZM4.19479 30.6384L3.19532 30.6711C3.19568 30.6818 3.1962 30.6925 3.19689 30.7032L4.19479 30.6384ZM7.31917 38.9616L8.04714 38.276L8.04705 38.2759L7.31917 38.9616ZM14.6764 41.6367L14.6481 42.6363L14.6481 42.6363L14.6764 41.6367ZM34.8895 40.2587L35.1349 41.2281L35.135 41.2281L34.8895 40.2587ZM41.0251 15.6982L40.0309 15.8052L40.0309 15.8052L41.0251 15.6982ZM38.1561 6.92921L38.9424 6.31147L38.9424 6.3114L38.1561 6.92921ZM31.2441 4.19024L31.1724 5.18766L31.1724 5.18767L31.2441 4.19024ZM10.2059 4.41852C7.95501 4.78685 6.4678 6.54306 5.48735 8.67147C4.50004 10.8148 3.91731 13.5542 3.572 16.3428C2.87978 21.9328 3.10868 28.0289 3.19532 30.6711L5.19425 30.6056C5.10687 27.941 4.88686 21.999 5.55684 16.5885C5.89263 13.8769 6.44377 11.3754 7.30388 9.50826C8.17084 7.62623 9.24457 6.60243 10.5289 6.39227L10.2059 4.41852ZM3.19689 30.7032C3.3989 33.8103 4.18215 37.09 6.5913 39.6473L8.04705 38.2759C6.09608 36.205 5.38103 33.4705 5.19268 30.5735L3.19689 30.7032ZM6.59121 39.6472C8.7269 41.9148 11.9624 42.5602 14.6481 42.6363L14.7047 40.6371C12.1905 40.5659 9.62949 39.9561 8.04714 38.276L6.59121 39.6472ZM14.6481 42.6363C20.98 42.8153 28.8276 42.8246 35.1349 41.2281L34.6442 39.2892C28.6391 40.8092 21.0506 40.8165 14.7046 40.6371L14.6481 42.6363ZM35.135 41.2281C40.4212 39.8898 42.2082 34.7996 42.6859 29.732C43.1694 24.6025 42.3779 18.9199 42.0194 15.5911L40.0309 15.8052C40.4006 19.2381 41.1544 24.6678 40.6947 29.5443C40.2292 34.4825 38.5844 38.2917 34.6441 39.2893L35.135 41.2281ZM42.0194 15.5912C41.7094 12.71 40.9934 8.92238 38.9424 6.31147L37.3697 7.54695C39.0431 9.67728 39.7244 12.9574 40.0309 15.8052L42.0194 15.5912ZM38.9424 6.3114C37.0265 3.87287 33.7585 3.36825 31.3157 3.19281L31.1724 5.18767C33.6302 5.36419 36.0454 5.8615 37.3697 7.54702L38.9424 6.3114ZM31.3158 3.19281C25.9587 2.80776 15.4751 3.55631 10.2059 4.41852L10.5289 6.39227C15.6928 5.54728 26.0138 4.81688 31.1724 5.18766L31.3158 3.19281Z" fill="#1560BD"/>
<path fill-rule="evenodd" clip-rule="evenodd" d="M32.302 10.5957C30.6897 10.6074 30.3591 13.0112 31.8288 13.5847C33.5396 14.252 34.8238 10.9978 32.302 10.5957Z" fill="#1560BD" stroke="#1560BD" stroke-width="3" stroke-miterlimit="1.5" stroke-linecap="round" stroke-linejoin="round"/>
<path fill-rule="evenodd" clip-rule="evenodd" d="M26.0307 17.742C25.2905 17.2731 24.5678 16.9892 23.6993 16.8317C17.6046 15.7256 13.8825 24.0028 17.9095 28.2438C18.5477 28.9157 19.3516 29.4712 20.1902 29.8648C24.4181 31.8507 29.3215 28.358 29.5472 23.8123C29.618 22.3912 29.0441 19.651 26.0307 17.742Z" fill="white"/>
<path d="M26.0307 17.742L25.228 19.0091L26.0307 17.742ZM23.6993 16.8317L23.4314 18.3076L23.4316 18.3076L23.6993 16.8317ZM17.9095 28.2438L16.8218 29.2766L16.8219 29.2768L17.9095 28.2438ZM20.1902 29.8648L20.828 28.5071L20.8275 28.5069L20.1902 29.8648ZM29.5472 23.8123L28.0491 23.7377L28.0491 23.7379L29.5472 23.8123ZM26.8335 16.4749C25.9312 15.9033 25.027 15.548 23.9669 15.3557L23.4316 18.3076C24.1086 18.4304 24.6498 18.6429 25.228 19.0091L26.8335 16.4749ZM23.9671 15.3558C20.0908 14.6523 17.0599 16.9784 15.6581 19.8801C14.2695 22.7545 14.2753 26.5948 16.8218 29.2766L18.9973 27.2109C17.5168 25.6518 17.3701 23.233 18.3594 21.1851C19.3356 19.1645 21.213 17.905 23.4314 18.3076L23.9671 15.3558ZM16.8219 29.2768C17.6029 30.0991 18.5651 30.7591 19.553 31.2227L20.8275 28.5069C20.138 28.1834 19.4925 27.7323 18.9972 27.2108L16.8219 29.2768ZM19.5525 31.2225C22.2168 32.474 25.0567 31.9716 27.2039 30.5344C29.3386 29.1055 30.9066 26.6814 31.0454 23.8867L28.0491 23.7379C27.9621 25.4888 26.9655 27.0839 25.5351 28.0414C24.1172 28.9905 22.3915 29.2416 20.828 28.5071L19.5525 31.2225ZM31.0454 23.8868C31.1378 22.0303 30.3854 18.7251 26.8335 16.4749L25.228 19.0091C27.7028 20.577 28.0982 22.7522 28.0491 23.7377L31.0454 23.8868Z" fill="#1560BD"/>
</svg>
