<svg width="46" height="46" viewBox="0 0 46 46" fill="none" xmlns="http://www.w3.org/2000/svg">
<path fill-rule="evenodd" clip-rule="evenodd" d="M36.0766 39.0532C41.5371 37.8242 40.4489 30.2606 40.3557 26.1288C40.3291 24.9484 40.3251 23.7678 40.2871 22.5874C40.2405 21.1426 40.1637 19.6993 40.0813 18.2563C39.9732 16.3649 39.8111 14.5185 39.5117 12.6464C39.3631 11.7181 39.1989 10.7659 38.7925 9.90983C36.8311 5.7776 31.9519 6.13645 28.1108 6.00846C24.1986 5.87834 20.2786 5.83293 16.3643 5.93034C13.8501 5.99327 11.3405 5.88084 9.10644 7.05975C6.33871 8.52059 6.03257 11.6612 5.87863 14.4972C5.55795 20.4017 5.40795 26.6939 6.2292 32.5646C6.6672 35.6964 7.71311 38.6413 11.1709 39.3587C14.9604 40.1452 18.9209 39.8794 22.7179 39.6646C26.0477 39.4766 32.7457 39.2843 36.0766 39.0532Z" fill="white" stroke="#1560BD" stroke-width="2" stroke-miterlimit="1.5" stroke-linecap="round" stroke-linejoin="round"/>
<path d="M23.7093 38.6203C23.3865 31.8323 21.6956 24.3131 22.9407 17.581C23.7736 13.0765 28.0069 11.4265 32.0133 13.9372" stroke="#1560BD" stroke-width="3" stroke-miterlimit="1.5" stroke-linecap="round" stroke-linejoin="round"/>
<path d="M18.2122 22.481C21.6685 22.3985 25.1218 22.272 28.576 22.1387" stroke="#1560BD" stroke-width="3" stroke-miterlimit="1.5" stroke-linecap="round" stroke-linejoin="round"/>
</svg>
