<svg width="44" height="51" viewBox="0 0 44 51" fill="none" xmlns="http://www.w3.org/2000/svg">
<path fill-rule="evenodd" clip-rule="evenodd" d="M22 0C19.8438 0 16.2406 0.844688 12.85 1.785C9.38126 2.74125 5.88439 3.87281 3.82814 4.55813C2.96843 4.84771 2.20624 5.3788 1.62913 6.09036C1.05203 6.80192 0.683414 7.66511 0.565642 8.58075C-1.29686 22.8512 3.02502 33.4273 8.26877 40.4239C10.4925 43.4168 13.1439 46.0525 16.1344 48.2428C17.3406 49.113 18.4594 49.7792 19.4094 50.235C20.2844 50.6558 21.225 51 22 51C22.775 51 23.7125 50.6558 24.5906 50.235C25.7359 49.6672 26.8315 49.0007 27.8656 48.2428C30.8562 46.0525 33.5076 43.4169 35.7313 40.4239C40.975 33.4273 45.2969 22.8512 43.4344 8.58075C43.3168 7.66467 42.9483 6.80098 42.3712 6.08887C41.7941 5.37676 41.0318 4.8451 40.1719 4.55494C37.1869 3.55665 34.1787 2.63201 31.15 1.78181C27.7594 0.847875 24.1563 0 22 0ZM20.2813 27.1001L19.1875 15.9216C19.1459 15.5194 19.1876 15.1129 19.31 14.7283C19.4324 14.3436 19.6327 13.9896 19.8979 13.689C20.1631 13.3884 20.4873 13.1481 20.8494 12.9836C21.2116 12.8191 21.6036 12.7341 22 12.7341C22.3965 12.7341 22.7885 12.8191 23.1506 12.9836C23.5127 13.1481 23.8369 13.3884 24.1021 13.689C24.3673 13.9896 24.5676 14.3436 24.69 14.7283C24.8124 15.1129 24.8541 15.5194 24.8125 15.9216L23.7188 27.1001C23.682 27.5393 23.485 27.9484 23.1667 28.2465C22.8485 28.5446 22.4321 28.71 22 28.71C21.5679 28.71 21.1515 28.5446 20.8333 28.2465C20.515 27.9484 20.318 27.5393 20.2813 27.1001ZM22.0063 38.25C21.1775 38.25 20.3826 37.9142 19.7966 37.3164C19.2105 36.7186 18.8813 35.9079 18.8813 35.0625C18.8813 34.2171 19.2105 33.4064 19.7966 32.8086C20.3826 32.2108 21.1775 31.875 22.0063 31.875C22.8351 31.875 23.6299 32.2108 24.216 32.8086C24.802 33.4064 25.1313 34.2171 25.1313 35.0625C25.1313 35.9079 24.802 36.7186 24.216 37.3164C23.6299 37.9142 22.8351 38.25 22.0063 38.25Z" fill="#1560BD"/>
</svg>
