<svg width="31" height="34" viewBox="0 0 31 34" fill="none" xmlns="http://www.w3.org/2000/svg">
<path opacity="0.5" fill-rule="evenodd" clip-rule="evenodd" d="M9.55844 15.2179C11.8683 17.9999 16.3363 23.8015 16.7464 24.3767C14.9664 26.5505 15.2322 30.1063 17.5187 31.8497C19.5857 33.4256 22.7597 33.3571 24.8084 31.7987C23.7031 30.7648 22.3066 29.338 21.1334 27.9708C21.0695 27.8962 21.1038 25.7638 21.2147 24.6873C22.1954 24.6099 23.6666 24.2039 24.7533 24.1904C26.1648 25.5287 27.5799 27.0266 28.6574 28.1243C29.4549 26.8179 30.2822 25.1792 29.9067 23.583C29.0235 19.829 25.3727 17.4117 22.199 19.4531C20.4243 17.4779 16.0081 11.5765 15.1618 10.6576C15.8478 9.49739 16.6681 7.69005 16.3541 6.3228C15.4639 2.44672 10.5658 -0.65094 7.07276 1.97365C8.05807 3.42017 9.22879 4.74892 10.2933 6.13827C10.0901 6.5743 9.98866 7.07334 9.85382 7.53217C9.67626 8.13575 9.38019 8.70032 9.21847 9.30882C8.13353 9.33805 7.04155 9.74015 5.96705 9.72378C4.87519 8.49732 3.62151 6.78082 2.80237 5.37709C-0.499854 9.49544 0.660769 16.21 6.90342 15.823C7.80059 15.7674 8.73603 15.5935 9.55844 15.2179V15.2179Z" stroke="white" stroke-width="2" stroke-miterlimit="1.5" stroke-linecap="round" stroke-linejoin="round"/>
</svg>
