<svg width="43" height="42" viewBox="0 0 43 42" fill="none" xmlns="http://www.w3.org/2000/svg">
<path fill-rule="evenodd" clip-rule="evenodd" d="M28.896 28.4464C28.9563 30.4468 29.2961 35.9739 29.482 37.9615C25.6558 39.0063 22.6883 39.4504 19.1096 39.7145C18.9465 37.5545 18.1862 34.0917 17.9522 31.9373C16.9826 33.1845 14.4955 35.9527 13.5446 37.2144C10.5818 34.7467 7.5355 32.1443 4.88223 29.3535C6.14179 28.0226 8.81368 25.0824 10.0686 23.7468C8.27156 23.7464 4.28945 23.2965 2.49712 23.153C2.55061 20.1627 2.43434 16.9626 2.87967 14.0244C5.69086 13.9845 10.6854 14.3551 13.4953 14.2774C13.5004 13.7731 12.6085 6.17961 12.5958 3.90077C15.7942 2.98975 19.1278 2.5564 22.4332 2.23206C22.5198 4.22138 22.9231 8.23907 22.9999 10.228C24.9663 8.78713 27.2277 6.51558 30.2121 3.74344C32.867 6.60982 35.8469 9.14534 38.4416 12.0745C36.8777 13.5774 34.0584 17.3093 32.5556 18.8733C35.4903 19.3891 38.4857 19.8943 41.4611 20.1104C40.8978 23.2574 40.2691 26.3695 39.373 29.4367C36.2905 29.1816 31.7484 28.716 28.896 28.4464Z" stroke="#E154B2" stroke-width="3" stroke-miterlimit="1.5" stroke-linecap="round" stroke-linejoin="round"/>
</svg>
